<svg width="253" height="23" viewBox="0 0 253 23" fill="none" xmlns="http://www.w3.org/2000/svg">
<path d="M5.34524 5.9166C6.55671 5.9166 7.61538 6.15671 8.52125 6.63693C9.42713 7.11716 10.1256 7.79383 10.6168 8.66696C11.1188 9.52918 11.3698 10.5278 11.3698 11.6629C11.3698 12.787 11.1188 13.7857 10.6168 14.6588C10.1256 15.5319 9.42167 16.2086 8.50488 16.6888C7.59901 17.1691 6.5458 17.4092 5.34524 17.4092H1.03962V5.9166H5.34524ZM5.16516 14.9862C6.22383 14.9862 7.04785 14.697 7.63721 14.1186C8.22657 13.5401 8.52125 12.7216 8.52125 11.6629C8.52125 10.6042 8.22657 9.7802 7.63721 9.19084C7.04785 8.60148 6.22383 8.3068 5.16516 8.3068H3.83909V14.9862H5.16516ZM21.5456 12.6943C21.5456 12.9562 21.5292 13.2291 21.4964 13.5128H15.1608C15.2045 14.0804 15.3845 14.5169 15.701 14.8225C16.0285 15.1172 16.4268 15.2646 16.8961 15.2646C17.5946 15.2646 18.0803 14.9699 18.3532 14.3805H21.3327C21.1799 14.9808 20.9016 15.521 20.4978 16.0013C20.1049 16.4815 19.6083 16.858 19.008 17.1309C18.4077 17.4037 17.7365 17.5401 16.9944 17.5401C16.0994 17.5401 15.3027 17.3492 14.6042 16.9672C13.9057 16.5852 13.36 16.0395 12.9671 15.33C12.5741 14.6206 12.3777 13.7911 12.3777 12.8416C12.3777 11.8921 12.5687 11.0626 12.9507 10.3532C13.3436 9.64378 13.8893 9.09807 14.5878 8.71608C15.2863 8.33408 16.0885 8.14308 16.9944 8.14308C17.8784 8.14308 18.6642 8.32862 19.3518 8.6997C20.0394 9.07079 20.5742 9.60012 20.9562 10.2877C21.3491 10.9753 21.5456 11.7775 21.5456 12.6943ZM18.6806 11.9576C18.6806 11.4774 18.5169 11.0954 18.1895 10.8116C17.862 10.5278 17.4528 10.3859 16.9616 10.3859C16.4923 10.3859 16.094 10.5224 15.7665 10.7952C15.45 11.0681 15.2536 11.4555 15.1772 11.9576H18.6806ZM26.7387 17.5401C25.942 17.5401 25.2325 17.4037 24.6104 17.1309C23.9883 16.858 23.4972 16.4869 23.137 16.0176C22.7769 15.5374 22.5749 15.0026 22.5313 14.4133H25.298C25.3308 14.7298 25.4781 14.9862 25.74 15.1827C26.002 15.3792 26.3239 15.4774 26.7059 15.4774C27.0552 15.4774 27.3226 15.4119 27.5081 15.2809C27.7046 15.139 27.8028 14.959 27.8028 14.7407C27.8028 14.4787 27.6664 14.2877 27.3935 14.1677C27.1207 14.0367 26.6787 13.8948 26.0675 13.742C25.4126 13.5892 24.8669 13.431 24.4303 13.2673C23.9938 13.0926 23.6172 12.8252 23.3007 12.4651C22.9842 12.094 22.826 11.5974 22.826 10.9753C22.826 10.4514 22.9679 9.97666 23.2516 9.55101C23.5463 9.11444 23.972 8.77065 24.5286 8.51962C25.0961 8.2686 25.7673 8.14308 26.5422 8.14308C27.6882 8.14308 28.5886 8.42685 29.2435 8.99439C29.9092 9.56192 30.2912 10.315 30.3895 11.2536H27.8028C27.7592 10.9371 27.6173 10.6861 27.3772 10.5005C27.148 10.315 26.8424 10.2222 26.4604 10.2222C26.1329 10.2222 25.8819 10.2877 25.7073 10.4187C25.5327 10.5387 25.4454 10.7079 25.4454 10.9262C25.4454 11.1881 25.5818 11.3846 25.8546 11.5155C26.1384 11.6465 26.575 11.7775 27.1643 11.9085C27.841 12.0831 28.3922 12.2577 28.8178 12.4323C29.2435 12.596 29.6146 12.8689 29.9311 13.2509C30.2585 13.622 30.4277 14.124 30.4386 14.757C30.4386 15.2918 30.2858 15.7721 29.9802 16.1977C29.6855 16.6124 29.2544 16.9399 28.6869 17.18C28.1302 17.4201 27.4808 17.5401 26.7387 17.5401ZM40.7625 12.6943C40.7625 12.9562 40.7462 13.2291 40.7134 13.5128H34.3778C34.4214 14.0804 34.6015 14.5169 34.918 14.8225C35.2454 15.1172 35.6438 15.2646 36.1131 15.2646C36.8116 15.2646 37.2973 14.9699 37.5701 14.3805H40.5497C40.3969 14.9808 40.1186 15.521 39.7148 16.0013C39.3219 16.4815 38.8253 16.858 38.225 17.1309C37.6247 17.4037 36.9535 17.5401 36.2113 17.5401C35.3164 17.5401 34.5196 17.3492 33.8211 16.9672C33.1226 16.5852 32.5769 16.0395 32.184 15.33C31.7911 14.6206 31.5947 13.7911 31.5947 12.8416C31.5947 11.8921 31.7857 11.0626 32.1677 10.3532C32.5606 9.64378 33.1063 9.09807 33.8048 8.71608C34.5033 8.33408 35.3055 8.14308 36.2113 8.14308C37.0954 8.14308 37.8812 8.32862 38.5688 8.6997C39.2564 9.07079 39.7912 9.60012 40.1732 10.2877C40.5661 10.9753 40.7625 11.7775 40.7625 12.6943ZM37.8976 11.9576C37.8976 11.4774 37.7339 11.0954 37.4064 10.8116C37.079 10.5278 36.6697 10.3859 36.1786 10.3859C35.7093 10.3859 35.3109 10.5224 34.9835 10.7952C34.667 11.0681 34.4705 11.4555 34.3941 11.9576H37.8976ZM47.8056 8.17583C48.8752 8.17583 49.7265 8.52508 50.3595 9.22358C51.0034 9.91117 51.3254 10.8607 51.3254 12.0722V17.4092H48.5423V12.4487C48.5423 11.8375 48.384 11.3628 48.0675 11.0244C47.751 10.6861 47.3254 10.5169 46.7906 10.5169C46.2558 10.5169 45.8301 10.6861 45.5136 11.0244C45.1971 11.3628 45.0389 11.8375 45.0389 12.4487V17.4092H42.2394V8.27405H45.0389V9.48552C45.3226 9.0817 45.7046 8.76519 46.1848 8.53599C46.6651 8.29588 47.2053 8.17583 47.8056 8.17583ZM57.3799 14.7898L59.3608 8.27405H62.3404L59.0989 17.4092H55.6446L52.4031 8.27405H55.399L57.3799 14.7898ZM67.677 17.5401C66.7821 17.5401 65.9744 17.3492 65.2541 16.9672C64.5447 16.5852 63.9826 16.0395 63.5679 15.33C63.164 14.6206 62.9621 13.7911 62.9621 12.8416C62.9621 11.903 63.1695 11.079 63.5842 10.3696C63.999 9.64923 64.5665 9.09807 65.2868 8.71608C66.0072 8.33408 66.8148 8.14308 67.7098 8.14308C68.6047 8.14308 69.4124 8.33408 70.1327 8.71608C70.853 9.09807 71.4206 9.64923 71.8353 10.3696C72.25 11.079 72.4574 11.903 72.4574 12.8416C72.4574 13.7802 72.2446 14.6097 71.8189 15.33C71.4042 16.0395 70.8312 16.5852 70.1 16.9672C69.3796 17.3492 68.572 17.5401 67.677 17.5401ZM67.677 15.1172C68.2118 15.1172 68.6648 14.9208 69.0358 14.5278C69.4178 14.1349 69.6088 13.5729 69.6088 12.8416C69.6088 12.1104 69.4233 11.5483 69.0522 11.1554C68.692 10.7625 68.2446 10.566 67.7098 10.566C67.1641 10.566 66.7111 10.7625 66.351 11.1554C65.9908 11.5374 65.8107 12.0995 65.8107 12.8416C65.8107 13.5729 65.9853 14.1349 66.3346 14.5278C66.6948 14.9208 67.1422 15.1172 67.677 15.1172ZM76.7421 5.2945V17.4092H73.9426V5.2945H76.7421ZM82.88 14.7898L84.8609 8.27405H87.8405L84.599 17.4092H81.1446L77.9031 8.27405H80.8991L82.88 14.7898ZM90.4267 7.32452C89.9356 7.32452 89.5318 7.18264 89.2152 6.89887C88.9096 6.60419 88.7569 6.24403 88.7569 5.81838C88.7569 5.38181 88.9096 5.02164 89.2152 4.73788C89.5318 4.44319 89.9356 4.29585 90.4267 4.29585C90.9069 4.29585 91.2998 4.44319 91.6054 4.73788C91.9219 5.02164 92.0802 5.38181 92.0802 5.81838C92.0802 6.24403 91.9219 6.60419 91.6054 6.89887C91.2998 7.18264 90.9069 7.32452 90.4267 7.32452ZM91.8183 8.27405V17.4092H89.0188V8.27405H91.8183ZM93.2904 12.8252C93.2904 11.8866 93.465 11.0626 93.8143 10.3532C94.1744 9.64378 94.6601 9.09807 95.2713 8.71608C95.8825 8.33408 96.5646 8.14308 97.3177 8.14308C97.918 8.14308 98.4637 8.2686 98.9548 8.51962C99.4569 8.77065 99.8498 9.10898 100.134 9.53464V5.2945H102.933V17.4092H100.134V16.0995C99.8716 16.536 99.4951 16.8853 99.0039 17.1472C98.5237 17.4092 97.9616 17.5401 97.3177 17.5401C96.5646 17.5401 95.8825 17.3492 95.2713 16.9672C94.6601 16.5742 94.1744 16.0231 93.8143 15.3137C93.465 14.5933 93.2904 13.7639 93.2904 12.8252ZM100.134 12.8416C100.134 12.1431 99.9371 11.5919 99.5442 11.1881C99.1622 10.7843 98.6929 10.5824 98.1363 10.5824C97.5796 10.5824 97.1049 10.7843 96.712 11.1881C96.33 11.581 96.139 12.1267 96.139 12.8252C96.139 13.5237 96.33 14.0804 96.712 14.4951C97.1049 14.8989 97.5796 15.1008 98.1363 15.1008C98.6929 15.1008 99.1622 14.8989 99.5442 14.4951C99.9371 14.0913 100.134 13.5401 100.134 12.8416ZM109.117 17.5401C108.222 17.5401 107.414 17.3492 106.694 16.9672C105.984 16.5852 105.422 16.0395 105.007 15.33C104.604 14.6206 104.402 13.7911 104.402 12.8416C104.402 11.903 104.609 11.079 105.024 10.3696C105.439 9.64923 106.006 9.09807 106.726 8.71608C107.447 8.33408 108.254 8.14308 109.149 8.14308C110.044 8.14308 110.852 8.33408 111.572 8.71608C112.293 9.09807 112.86 9.64923 113.275 10.3696C113.69 11.079 113.897 11.903 113.897 12.8416C113.897 13.7802 113.684 14.6097 113.259 15.33C112.844 16.0395 112.271 16.5852 111.54 16.9672C110.819 17.3492 110.012 17.5401 109.117 17.5401ZM109.117 15.1172C109.651 15.1172 110.104 14.9208 110.475 14.5278C110.857 14.1349 111.048 13.5729 111.048 12.8416C111.048 12.1104 110.863 11.5483 110.492 11.1554C110.132 10.7625 109.684 10.566 109.149 10.566C108.604 10.566 108.151 10.7625 107.791 11.1554C107.43 11.5374 107.25 12.0995 107.25 12.8416C107.25 13.5729 107.425 14.1349 107.774 14.5278C108.134 14.9208 108.582 15.1172 109.117 15.1172ZM121.651 9.56738C121.924 9.14173 122.3 8.79793 122.781 8.53599C123.261 8.27405 123.823 8.14308 124.467 8.14308C125.22 8.14308 125.902 8.33408 126.513 8.71608C127.124 9.09807 127.605 9.64378 127.954 10.3532C128.314 11.0626 128.494 11.8866 128.494 12.8252C128.494 13.7639 128.314 14.5933 127.954 15.3137C127.605 16.0231 127.124 16.5742 126.513 16.9672C125.902 17.3492 125.22 17.5401 124.467 17.5401C123.834 17.5401 123.272 17.4092 122.781 17.1472C122.3 16.8853 121.924 16.547 121.651 16.1322V21.7639H118.851V8.27405H121.651V9.56738ZM125.646 12.8252C125.646 12.1267 125.449 11.581 125.056 11.1881C124.674 10.7843 124.199 10.5824 123.632 10.5824C123.075 10.5824 122.6 10.7843 122.208 11.1881C121.826 11.5919 121.635 12.1431 121.635 12.8416C121.635 13.5401 121.826 14.0913 122.208 14.4951C122.6 14.8989 123.075 15.1008 123.632 15.1008C124.188 15.1008 124.663 14.8989 125.056 14.4951C125.449 14.0804 125.646 13.5237 125.646 12.8252ZM138.574 12.6943C138.574 12.9562 138.558 13.2291 138.525 13.5128H132.189C132.233 14.0804 132.413 14.5169 132.729 14.8225C133.057 15.1172 133.455 15.2646 133.925 15.2646C134.623 15.2646 135.109 14.9699 135.382 14.3805H138.361C138.208 14.9808 137.93 15.521 137.526 16.0013C137.133 16.4815 136.637 16.858 136.036 17.1309C135.436 17.4037 134.765 17.5401 134.023 17.5401C133.128 17.5401 132.331 17.3492 131.633 16.9672C130.934 16.5852 130.388 16.0395 129.996 15.33C129.603 14.6206 129.406 13.7911 129.406 12.8416C129.406 11.8921 129.597 11.0626 129.979 10.3532C130.372 9.64378 130.918 9.09807 131.616 8.71608C132.315 8.33408 133.117 8.14308 134.023 8.14308C134.907 8.14308 135.693 8.32862 136.38 8.6997C137.068 9.07079 137.603 9.60012 137.985 10.2877C138.378 10.9753 138.574 11.7775 138.574 12.6943ZM135.709 11.9576C135.709 11.4774 135.545 11.0954 135.218 10.8116C134.89 10.5278 134.481 10.3859 133.99 10.3859C133.521 10.3859 133.122 10.5224 132.795 10.7952C132.478 11.0681 132.282 11.4555 132.206 11.9576H135.709ZM142.85 5.2945V17.4092H140.051V5.2945H142.85ZM144.322 12.8252C144.322 11.8866 144.497 11.0626 144.846 10.3532C145.207 9.64378 145.692 9.09807 146.303 8.71608C146.915 8.33408 147.597 8.14308 148.35 8.14308C148.994 8.14308 149.556 8.27405 150.036 8.53599C150.527 8.79793 150.904 9.14173 151.166 9.56738V8.27405H153.965V17.4092H151.166V16.1159C150.893 16.5415 150.511 16.8853 150.02 17.1472C149.539 17.4092 148.977 17.5401 148.333 17.5401C147.591 17.5401 146.915 17.3492 146.303 16.9672C145.692 16.5742 145.207 16.0231 144.846 15.3137C144.497 14.5933 144.322 13.7639 144.322 12.8252ZM151.166 12.8416C151.166 12.1431 150.969 11.5919 150.576 11.1881C150.194 10.7843 149.725 10.5824 149.168 10.5824C148.612 10.5824 148.137 10.7843 147.744 11.1881C147.362 11.581 147.171 12.1267 147.171 12.8252C147.171 13.5237 147.362 14.0804 147.744 14.4951C148.137 14.8989 148.612 15.1008 149.168 15.1008C149.725 15.1008 150.194 14.8989 150.576 14.4951C150.969 14.0913 151.166 13.5401 151.166 12.8416Z" fill="#D1D1D6"/>
<mask id="mask0_8801_1801" style="mask-type:luminance" maskUnits="userSpaceOnUse" x="160" y="0" width="93" height="23">
<path d="M160.22 0L252.474 0.427428L252.37 22.8192L160.116 22.3917L160.22 0Z" fill="white"/>
</mask>
<g mask="url(#mask0_8801_1801)">
<path d="M189.915 8.98228C189.868 8.48271 189.656 8.09524 189.278 7.81717C188.899 7.53954 188.389 7.39745 187.746 7.39447C187.085 7.39141 186.58 7.52297 186.225 7.78869C185.87 8.05709 185.693 8.3935 185.691 8.80327C185.68 9.25689 185.875 9.60039 186.273 9.8378C186.673 10.0721 187.148 10.2543 187.7 10.385L188.844 10.6634C189.582 10.8326 190.239 11.0734 190.81 11.39C191.384 11.7066 191.835 12.1126 192.163 12.6081C192.491 13.1009 192.652 13.7031 192.648 14.4094C192.64 15.5688 192.197 16.4907 191.326 17.1727C190.453 17.8575 189.238 18.1949 187.681 18.1877C186.136 18.1805 184.902 17.8228 183.984 17.1181C183.065 16.4107 182.593 15.374 182.567 14.0022L185.173 14.0142C185.217 14.6508 185.466 15.1285 185.924 15.4508C186.381 15.7722 186.961 15.9348 187.663 15.9381C188.346 15.9412 188.893 15.8013 189.304 15.5126C189.714 15.227 189.923 14.85 189.928 14.3883C189.927 13.961 189.739 13.6287 189.366 13.3973C188.993 13.1627 188.462 12.9631 187.771 12.7942L186.384 12.4421C185.31 12.1814 184.462 11.7704 183.842 11.2095C183.222 10.649 182.916 9.90331 182.927 8.9705C182.924 8.20333 183.135 7.5303 183.555 6.95677C183.973 6.38322 184.551 5.9385 185.282 5.62213C186.014 5.30576 186.845 5.15018 187.774 5.15448C188.721 5.15887 189.547 5.32213 190.252 5.64785C190.958 5.97356 191.508 6.42396 191.899 6.99811C192.291 7.57541 192.49 8.23914 192.501 8.9947L189.915 8.98228ZM197.852 18.2402C196.87 18.2356 196.026 18.0315 195.318 17.6301C194.613 17.2287 194.069 16.6623 193.69 15.9252C193.311 15.1912 193.125 14.3243 193.129 13.322C193.134 12.3426 193.328 11.4832 193.714 10.7469C194.1 10.0107 194.641 9.43768 195.338 9.028C196.035 8.61921 196.851 8.41654 197.789 8.42089C198.633 8.4248 199.392 8.60521 200.068 8.96304C200.747 9.32087 201.282 9.85808 201.677 10.5774C202.073 11.294 202.268 12.1932 202.263 13.2716L202.26 13.9949L195.747 13.9647L195.747 13.9705C195.744 14.6794 195.937 15.241 196.324 15.6499C196.713 16.0615 197.239 16.2677 197.905 16.2708C198.348 16.2728 198.732 16.1815 199.057 15.9971C199.382 15.815 199.611 15.5402 199.744 15.1776L202.198 15.3489C202.007 16.2316 201.53 16.9356 200.768 17.4605C200.006 17.9859 199.035 18.2456 197.852 18.2402ZM195.755 12.3283L199.769 12.3469C199.769 11.7835 199.59 11.3147 199.229 10.9471C198.869 10.576 198.402 10.3907 197.823 10.388C197.237 10.3853 196.75 10.5751 196.372 10.9509C195.999 11.3153 195.778 11.8076 195.755 12.3283ZM209.227 14.0563L209.253 8.59581L211.906 8.6081L211.862 18.1192L209.314 18.1074L209.322 16.3815L209.222 16.381C209.01 16.9277 208.633 17.3951 208.144 17.7186C207.64 18.0535 207.032 18.2222 206.313 18.2189C205.352 18.2144 204.573 17.8911 203.979 17.2488C203.387 16.6097 203.093 15.7337 203.092 14.6235L203.12 8.5674L205.773 8.57969L205.747 14.1651C205.748 14.7258 205.897 15.1712 206.194 15.4981C206.494 15.8251 206.893 15.9922 207.395 15.9945C207.872 15.9968 208.296 15.833 208.668 15.5033C209.044 15.1737 209.228 14.6926 209.227 14.0563ZM213.132 18.1251L213.191 5.44332L218.295 5.46697C219.704 5.4735 220.76 5.78382 221.464 6.39704C222.168 7.00803 222.518 7.78801 222.514 8.73831C222.511 9.4853 222.291 10.0889 221.854 10.5459C221.413 11.006 220.863 11.3058 220.199 11.4509L220.198 11.5759C220.683 11.5983 221.138 11.737 221.564 11.992C221.986 12.2438 222.33 12.597 222.593 13.0487C222.857 13.5005 222.989 14.0385 222.986 14.6659C222.983 15.3404 222.813 15.9383 222.475 16.4657C222.139 16.9926 221.644 17.4063 220.991 17.7056C220.338 18.0071 219.534 18.1552 218.581 18.1508L213.132 18.1251ZM215.839 15.9468L218.036 15.957C218.79 15.9605 219.34 15.8175 219.686 15.5315C220.029 15.242 220.201 14.8622 220.203 14.3861C220.205 13.863 220.02 13.4318 219.645 13.096C219.273 12.7602 218.762 12.5921 218.113 12.5891L215.855 12.5786L215.839 15.9468ZM215.863 10.7622L217.862 10.7715C218.414 10.774 218.873 10.6337 219.24 10.3479C219.606 10.0648 219.789 9.67064 219.792 9.17041C219.794 8.71407 219.632 8.34429 219.309 8.0611C218.983 7.77745 218.522 7.63603 217.926 7.63327L215.878 7.62378L215.863 10.7622ZM228.093 18.3803C227.126 18.3758 226.292 18.1659 225.589 17.7529C224.89 17.3399 224.349 16.7619 223.97 16.0248C223.591 15.285 223.405 14.4296 223.409 13.4533C223.414 12.4712 223.608 11.6145 223.994 10.8783C224.38 10.142 224.926 9.57218 225.629 9.16566C226.335 8.75602 227.172 8.55657 228.139 8.56105C229.106 8.56553 229.94 8.77272 230.643 9.18889C231.342 9.6019 231.883 10.1768 232.262 10.9166C232.639 11.6564 232.827 12.5148 232.823 13.4969C232.818 14.4732 232.622 15.3268 232.239 16.0631C231.852 16.7966 231.306 17.3696 230.603 17.7761C229.897 18.1826 229.06 18.3848 228.093 18.3803ZM228.114 16.3378C228.772 16.3408 229.27 16.0699 229.608 15.5283C229.95 14.9835 230.123 14.2982 230.126 13.467C230.13 12.6358 229.964 11.9494 229.627 11.3983C229.294 10.8504 228.799 10.5749 228.141 10.5719C227.475 10.5688 226.968 10.8396 226.624 11.3844C226.283 11.9323 226.11 12.6172 226.106 13.4484C226.102 14.2795 226.269 14.9664 226.605 15.5143C226.944 16.0591 227.449 16.3347 228.114 16.3378ZM236.315 12.7343L236.289 18.2324L233.637 18.2201L233.681 8.70899L236.208 8.7207L236.2 10.4001L236.314 10.4006C236.521 9.85953 236.897 9.39968 237.387 9.08936C237.885 8.76609 238.487 8.609 239.197 8.61229C240.194 8.6169 240.99 8.93722 241.589 9.57952C242.188 10.2187 242.485 11.0951 242.479 12.2049L242.451 18.2609L239.801 18.2487L239.827 12.6633C239.833 12.0824 239.686 11.6254 239.383 11.2953C239.081 10.9656 238.667 10.8011 238.135 10.7987C237.6 10.7962 237.164 10.9657 236.83 11.3041C236.492 11.6429 236.321 12.1181 236.315 12.7343ZM248.001 18.4725C247.02 18.468 246.176 18.2639 245.468 17.8625C244.763 17.4611 244.219 16.8947 243.84 16.1576C243.46 15.4236 243.275 14.5566 243.279 13.5544C243.284 12.5749 243.478 11.7155 243.864 10.9793C244.25 10.243 244.79 9.67003 245.488 9.26035C246.185 8.85157 247.001 8.64889 247.939 8.65324C248.783 8.65715 249.542 8.83756 250.218 9.19539C250.897 9.55323 251.432 10.0904 251.827 10.8097C252.223 11.5263 252.418 12.4256 252.413 13.504L252.409 14.2272L245.897 14.197L245.897 14.2029C245.894 14.9118 246.087 15.4734 246.474 15.8823C246.863 16.2938 247.388 16.5001 248.054 16.5031C248.498 16.5052 248.882 16.4138 249.207 16.2295C249.532 16.0474 249.761 15.7725 249.894 15.41L252.348 15.5812C252.157 16.4639 251.68 17.168 250.918 17.6929C250.156 18.2183 249.185 18.478 248.001 18.4725ZM245.905 12.5607L249.919 12.5793C249.919 12.0159 249.74 11.547 249.379 11.1795C249.019 10.8083 248.552 10.623 247.973 10.6203C247.386 10.6176 246.9 10.8075 246.521 11.1833C246.149 11.5477 245.928 12.04 245.905 12.5607ZM246.93 7.54373L248.269 4.73389L250.715 4.74522L248.803 7.55241L246.93 7.54373Z" fill="#D1D1D6"/>
<path d="M160.147 15.6644L163.679 12.1844C162.657 10.6852 162.195 8.87465 162.373 7.06922C162.551 5.26379 163.358 3.57839 164.653 2.30769L164.653 2.30187L164.653 2.30097L164.654 2.30008C166.129 0.84429 168.122 0.0336598 170.195 0.0462263C172.193 0.0554803 174.19 0.82607 175.711 2.35131L175.717 2.35134L175.718 2.35224L176.738 3.37715L175.708 4.39167L171.18 8.85317L166.652 13.3151L165.622 14.331L165.621 14.3296L162.188 17.7129L160.147 15.6644ZM168.754 13.6298L173.283 9.16744L174.313 8.15292L174.314 8.15337L177.747 4.77015L179.788 6.81819L176.258 10.2964C177.14 11.5914 177.607 13.1235 177.599 14.6901C177.59 16.6803 176.817 18.6687 175.282 20.1816L175.281 20.1825L175.275 20.1824C173.801 21.6372 171.81 22.4478 169.739 22.4363C167.668 22.4285 165.685 21.5995 164.224 20.1312L164.218 20.1312L164.218 20.1303L163.198 19.1063L164.227 18.0918L168.754 13.6298ZM171.55 14.9339L170.795 15.6783L167.45 18.9746C168.159 19.3504 168.949 19.5483 169.752 19.5514C171.015 19.5572 172.278 19.0848 173.243 18.1367L173.24 18.134L173.241 18.1331C173.7 17.6819 174.066 17.1441 174.316 16.5508C174.566 15.9575 174.696 15.3205 174.698 14.6767C174.702 13.8885 174.516 13.0994 174.14 12.3838L171.551 14.9357L171.55 14.9339ZM165.793 10.1005L168.384 7.54729L169.139 6.80468L172.485 3.50837C171.775 3.13264 170.985 2.93473 170.182 2.93162C168.877 2.92328 167.623 3.43307 166.694 4.34902L166.693 4.34991L166.69 4.34765C166.232 4.79957 165.867 5.33782 165.617 5.93136C165.368 6.5249 165.238 7.16199 165.236 7.80588C165.232 8.59452 165.419 9.38449 165.794 10.1001L165.793 10.1005Z" fill="#D1D1D6"/>
</g>
</svg>
